<?xml version="1.0" encoding="UTF-8"?>
<!DOCTYPE svg PUBLIC "-//W3C//DTD SVG 1.1//EN" "http://www.w3.org/Graphics/SVG/1.1/DTD/svg11.dtd">
<svg xmlns="http://www.w3.org/2000/svg" version="1.1" width="984px" height="594px" style="shape-rendering:geometricPrecision; text-rendering:geometricPrecision; image-rendering:optimizeQuality; fill-rule:evenodd; clip-rule:evenodd" xmlns:xlink="http://www.w3.org/1999/xlink">
<g><path style="opacity:1" fill="#3e9676" d="M 207.5,100.5 C 210.777,100.216 213.943,100.549 217,101.5C 217.667,208.5 217.667,315.5 217,422.5C 215.769,423.108 214.436,423.441 213,423.5C 153.274,414.039 93.4405,405.372 33.5,397.5C 33.3333,312.833 33.5,228.166 34,143.5C 44.0838,140.208 54.2505,137.375 64.5,135C 104.195,125.993 143.861,116.827 183.5,107.5C 191.917,105.739 199.917,103.405 207.5,100.5 Z"/></g>
<g><path style="opacity:1" fill="#3e9676" d="M 225.5,104.5 C 229.846,104.334 234.179,104.501 238.5,105C 350.079,134.311 461.745,162.811 573.5,190.5C 573.829,220.407 573.495,250.24 572.5,280C 508.92,272.239 445.087,264.072 381,255.5C 378.964,256.102 377.13,257.102 375.5,258.5C 374.167,279.5 374.167,300.5 375.5,321.5C 377.026,322.906 378.693,324.072 380.5,325C 444.129,329.167 507.795,333.667 571.5,338.5C 573.478,364.007 574.145,389.674 573.5,415.5C 491.142,412.551 408.809,413.551 326.5,418.5C 292.701,420.742 259.035,423.075 225.5,425.5C 225.5,318.5 225.5,211.5 225.5,104.5 Z"/></g>
<g><path style="opacity:1" fill="#3e9676" d="M 581.5,244.5 C 626.897,253.579 672.23,262.913 717.5,272.5C 717.818,281.751 717.485,290.917 716.5,300C 712.5,300.667 708.5,300.667 704.5,300C 667.343,294.717 630.01,290.05 592.5,286C 588.43,285.151 584.43,283.984 580.5,282.5C 578.92,269.671 579.253,257.004 581.5,244.5 Z"/></g>
<g><path style="opacity:1" fill="#3e9676" d="M 390.5,268.5 C 527.457,286.745 664.457,303.911 801.5,320C 802.333,320.833 803.167,321.667 804,322.5C 804.5,330.827 804.666,339.16 804.5,347.5C 665.961,336.734 527.294,326.067 388.5,315.5C 387.9,299.661 388.567,283.995 390.5,268.5 Z"/></g>
<g><path style="opacity:1" fill="#3e9676" d="M 794.5,282.5 C 797.788,282.073 800.788,282.74 803.5,284.5C 804.498,293.475 804.832,302.475 804.5,311.5C 786.495,309.851 768.495,308.018 750.5,306C 741.64,305.134 732.974,303.634 724.5,301.5C 722.972,296.632 723.305,291.965 725.5,287.5C 748.846,286.307 771.846,284.64 794.5,282.5 Z"/></g>
<g><path style="opacity:1" fill="#3e9676" d="M 812.5,286.5 C 815.247,286.187 817.914,286.52 820.5,287.5C 859.674,298.75 898.841,309.75 938,320.5C 938.5,366.832 938.667,413.165 938.5,459.5C 896.059,453.105 853.726,446.438 811.5,439.5C 811.167,414.333 810.833,389.167 810.5,364C 810.518,338.02 811.185,312.187 812.5,286.5 Z"/></g>
<g><path style="opacity:1" fill="#3e9676" d="M 580.5,341.5 C 625.983,343.726 671.316,346.559 716.5,350C 717.059,352.941 717.893,355.775 719,358.5C 719.833,370.181 719.666,381.848 718.5,393.5C 711.334,394.798 704,395.465 696.5,395.5C 658.158,394.031 619.825,392.364 581.5,390.5C 580.198,382.497 579.531,374.331 579.5,366C 579.515,357.758 579.848,349.591 580.5,341.5 Z"/></g>
<g><path style="opacity:1" fill="#3e9676" d="M 723.5,351.5 C 750.347,354.052 777.347,356.052 804.5,357.5C 804.833,378.844 804.5,400.177 803.5,421.5C 802.051,422.617 800.384,423.284 798.5,423.5C 774.274,414.532 749.941,405.532 725.5,396.5C 723.538,381.674 722.872,366.674 723.5,351.5 Z"/></g>
<g><path style="opacity:1" fill="#3e9676" d="M 583.5,399.5 C 632.505,401.41 681.505,403.577 730.5,406C 750.597,413.651 770.597,421.817 790.5,430.5C 792.396,431.466 794.396,431.799 796.5,431.5C 796.5,433.5 796.5,435.5 796.5,437.5C 730.592,427.932 664.258,421.599 597.5,418.5C 596.167,417.833 594.833,417.167 593.5,416.5C 591.257,412.252 588.257,408.586 584.5,405.5C 583.534,403.604 583.201,401.604 583.5,399.5 Z"/></g>
<g><path style="opacity:1" fill="#3e9676" d="M 442.5,425.5 C 504.856,425.1 567.19,426.1 629.5,428.5C 693.338,432.901 757.004,437.901 820.5,443.5C 820.5,447.5 820.5,451.5 820.5,455.5C 624.061,439.992 428.561,447.992 234,479.5C 231.113,478.896 228.28,478.229 225.5,477.5C 225.168,466.147 225.501,454.814 226.5,443.5C 227.5,442.5 228.5,441.5 229.5,440.5C 300.647,433.091 371.647,428.091 442.5,425.5 Z"/></g>
</svg>
