<?xml version="1.0" standalone="no"?>
<!DOCTYPE svg PUBLIC "-//W3C//DTD SVG 20010904//EN"
 "http://www.w3.org/TR/2001/REC-SVG-20010904/DTD/svg10.dtd">
<svg version="1.0" xmlns="http://www.w3.org/2000/svg"
 width="984.000000pt" height="594.000000pt" viewBox="0 0 984.000000 594.000000"
 preserveAspectRatio="xMidYMid meet">

<g transform="translate(0.000000,594.000000) scale(0.100000,-0.100000)"
fill="#000000" stroke="none">
<path d="M2065 4890 c-16 -4 -70 -17 -120 -29 -94 -22 -372 -87 -512 -121 -46
-11 -120 -29 -166 -39 -45 -11 -131 -32 -192 -46 -103 -25 -207 -49 -400 -95
-44 -10 -123 -29 -175 -41 -52 -12 -105 -25 -118 -30 l-22 -9 0 -1244 c0 -878
3 -1247 11 -1251 6 -4 38 -11 72 -15 74 -10 244 -34 422 -60 33 -5 96 -14 140
-20 44 -6 109 -16 145 -21 36 -5 95 -14 133 -19 37 -6 99 -14 137 -20 39 -5
102 -14 140 -20 38 -5 100 -14 138 -20 37 -5 96 -14 132 -19 324 -48 326 -49
333 -20 8 31 9 3096 1 3127 -7 24 -40 28 -99 12z"/>
<path d="M2276 4854 c-3 -9 -6 -717 -6 -1574 l0 -1559 22 -15 c12 -8 24 -13
28 -11 7 4 135 16 395 36 380 29 638 44 975 58 129 5 269 13 310 16 41 4 446
8 900 8 l825 2 3 340 c2 262 -1 345 -10 358 -11 14 -68 20 -383 42 -607 42
-1354 94 -1445 101 -105 8 -142 24 -158 67 -8 23 -12 123 -12 318 0 265 1 286
20 316 33 54 22 54 490 -7 85 -12 187 -25 225 -30 39 -5 178 -23 310 -40 132
-17 339 -44 460 -60 121 -16 274 -36 340 -45 66 -9 130 -13 142 -10 l23 5 0
409 c0 341 -2 410 -14 420 -14 11 -151 49 -361 100 -22 5 -112 28 -200 51 -88
23 -176 45 -195 50 -19 5 -141 35 -270 68 -348 90 -1007 257 -1730 441 -217
55 -449 114 -514 130 -136 35 -161 37 -170 15z"/>
<path d="M5827 3439 c-4 -13 -7 -83 -7 -155 0 -111 3 -135 18 -151 15 -18 90
-29 638 -97 342 -43 634 -76 650 -74 l29 3 5 98 c3 54 2 107 -2 116 -3 10 -21
21 -40 24 -18 4 -76 16 -128 27 -135 30 -289 61 -425 88 -48 9 -163 33 -350
73 -49 11 -115 24 -145 30 -30 6 -75 15 -100 20 -25 5 -66 12 -91 15 -42 6
-47 4 -52 -17z"/>
<path d="M3908 3214 c-5 -4 -8 -94 -8 -199 0 -157 3 -195 15 -205 14 -12 52
-15 870 -79 215 -17 563 -45 775 -61 212 -17 441 -35 510 -40 69 -6 181 -14
250 -20 119 -10 223 -18 515 -41 72 -5 182 -14 245 -19 63 -5 176 -14 250 -20
130 -10 203 -15 522 -41 82 -6 155 -9 163 -5 20 7 22 198 3 214 -7 5 -89 19
-183 31 -93 12 -312 39 -485 61 -173 23 -350 45 -392 50 -43 6 -113 14 -155
20 -43 5 -185 23 -315 40 -131 16 -345 44 -475 60 -131 17 -273 35 -315 40
-174 22 -240 30 -393 50 -177 23 -746 95 -867 110 -43 6 -115 15 -160 21 -290
37 -360 44 -370 33z"/>
<path d="M7940 3083 c-25 -1 -184 -10 -355 -19 -174 -9 -315 -20 -322 -26 -17
-14 -17 -83 0 -95 6 -6 71 -18 142 -27 72 -9 234 -29 360 -46 127 -16 240 -30
253 -30 22 0 22 2 22 119 0 115 -1 119 -22 125 -13 3 -25 5 -28 4 -3 -1 -25
-3 -50 -5z"/>
<path d="M8147 3043 c-8 -14 -18 -1468 -10 -1479 9 -12 84 -27 218 -44 50 -7
110 -15 135 -20 25 -5 65 -11 90 -14 25 -3 74 -11 110 -16 36 -6 92 -15 125
-20 33 -5 88 -14 123 -20 34 -5 88 -14 120 -20 31 -5 83 -14 115 -20 151 -27
170 -29 188 -19 18 9 19 35 19 669 0 626 -1 660 -18 669 -10 5 -146 46 -303
90 -156 45 -300 86 -319 91 -600 171 -585 167 -593 153z"/>
<path d="M5825 2477 c-11 -42 -1 -415 11 -427 8 -8 114 -15 308 -21 163 -5
428 -13 589 -18 160 -5 315 -13 343 -16 32 -5 59 -3 73 4 20 11 21 18 21 192
0 99 -4 188 -10 198 -11 22 -29 24 -690 71 -693 50 -638 48 -645 17z"/>
<path d="M7255 2379 c-3 -8 -4 -97 -3 -198 l3 -183 65 -25 c36 -14 100 -38
143 -54 112 -42 225 -85 320 -120 165 -62 182 -68 209 -74 20 -5 27 -2 31 12
3 10 7 146 9 303 l3 284 -45 8 c-25 5 -106 13 -180 18 -74 6 -189 15 -255 20
-66 5 -159 12 -207 16 -71 6 -89 4 -93 -7z"/>
<path d="M5870 1902 c0 -4 25 -35 55 -68 l54 -61 163 -11 c90 -7 199 -14 243
-17 499 -34 986 -79 1260 -115 44 -6 114 -15 155 -20 41 -5 85 -12 98 -16 12
-3 22 -2 22 2 0 5 -28 20 -62 33 -35 13 -83 33 -108 43 -25 11 -55 24 -67 29
-13 5 -35 14 -50 20 -16 7 -37 15 -48 19 -11 4 -32 12 -47 19 -16 6 -39 16
-53 21 -14 6 -36 15 -50 20 -14 6 -35 14 -47 19 -13 5 -35 13 -49 19 -52 21
-183 31 -519 42 -190 6 -437 15 -550 20 -253 12 -400 12 -400 2z"/>
<path d="M4590 1654 c-557 -11 -1349 -53 -1780 -94 -52 -5 -151 -14 -220 -20
-230 -20 -289 -30 -305 -53 -23 -32 -21 -264 1 -296 16 -22 21 -23 88 -17 39
4 96 11 126 16 178 30 645 94 885 121 209 23 265 30 360 39 866 88 1571 123
2490 124 704 0 1198 -17 1809 -63 66 -5 126 -7 133 -4 8 3 13 16 11 31 -4 36
-10 37 -418 72 -133 11 -295 26 -430 40 -58 6 -152 15 -210 20 -58 5 -154 14
-215 20 -450 44 -1667 77 -2325 64z"/>
</g>
</svg>
