<?xml version="1.0" standalone="no"?>
<!DOCTYPE svg PUBLIC "-//W3C//DTD SVG 20010904//EN"
 "http://www.w3.org/TR/2001/REC-SVG-20010904/DTD/svg10.dtd">
<svg version="1.0" xmlns="http://www.w3.org/2000/svg"
 width="1080.000000pt" height="648.000000pt" viewBox="0 0 1080.000000 648.000000"
 preserveAspectRatio="xMidYMid meet">

<g transform="translate(0.000000,648.000000) scale(0.100000,-0.100000)"
fill="#000000" stroke="none">
<path d="M8185 5731 c-206 -32 -363 -72 -515 -131 -30 -12 -66 -25 -80 -29
-93 -30 -296 -147 -400 -230 -125 -100 -145 -120 -216 -210 -133 -167 -186
-302 -211 -543 -7 -68 13 -241 33 -282 8 -16 14 -34 14 -41 0 -39 110 -214
197 -313 178 -202 543 -421 788 -472 22 -4 63 -15 90 -24 117 -36 206 -52 370
-66 324 -29 448 -23 725 31 132 26 139 25 210 -24 152 -106 370 -216 495 -249
128 -34 212 -50 250 -46 52 4 50 23 -11 98 -40 50 -70 93 -175 250 -46 70 -78
143 -86 197 -5 38 -3 45 28 72 18 17 37 31 42 31 17 0 180 144 229 203 187
225 264 465 224 697 -34 193 -86 315 -199 467 -99 133 -205 225 -373 324 -178
106 -347 176 -559 232 -55 15 -91 22 -285 57 -116 22 -448 22 -585 1z"/>
<path d="M2130 5343 c-52 -7 -60 -18 -60 -83 0 -56 1 -58 31 -69 18 -6 43 -11
57 -11 19 0 23 -4 17 -17 -5 -10 -11 -48 -16 -85 -4 -37 -13 -77 -19 -89 -7
-12 -9 -38 -5 -63 3 -22 8 -64 11 -92 5 -43 10 -54 31 -63 31 -14 49 -4 127
74 30 30 61 55 70 55 9 0 33 9 53 20 21 11 49 20 63 20 38 0 69 26 63 50 -6
21 17 74 50 119 9 13 17 32 17 42 0 20 15 26 24 10 3 -4 7 -41 10 -81 3 -46
10 -78 20 -89 9 -10 16 -27 16 -39 0 -35 30 -27 78 21 38 37 48 42 90 42 42 0
47 2 46 23 0 12 5 22 12 22 25 0 23 54 -2 88 -27 35 -48 39 -78 17 -30 -23
-54 -18 -70 13 -34 66 -79 77 -112 26 -26 -38 -50 -30 -78 25 -25 48 -41 61
-75 61 -25 0 -83 -117 -70 -141 5 -10 14 -38 19 -61 5 -24 12 -55 15 -69 6
-21 3 -27 -14 -32 -11 -3 -25 1 -32 9 -6 8 -20 14 -31 14 -28 0 -32 26 -9 59
25 35 27 57 5 65 -27 10 -45 7 -71 -14 -24 -19 -25 -19 -58 3 -18 12 -38 29
-44 39 -10 16 -6 18 41 20 29 0 66 2 82 2 19 1 39 14 63 40 l35 38 -29 30
c-15 16 -35 34 -44 38 -18 10 -179 19 -229 13z"/>
<path d="M3750 5313 c-13 -3 -33 -11 -44 -19 -11 -8 -30 -14 -43 -14 -14 0
-32 -14 -49 -37 -43 -59 -54 -65 -80 -48 -32 21 -41 19 -56 -12 -9 -20 -27
-32 -59 -43 -26 -8 -54 -21 -63 -29 -10 -8 -16 -9 -16 -2 0 23 -81 30 -107 9
-6 -5 -36 -11 -65 -14 -55 -4 -126 -44 -178 -99 -16 -17 -34 -25 -57 -25 -31
0 -33 -3 -39 -40 -5 -28 -22 -57 -61 -102 -30 -35 -59 -73 -64 -86 -13 -33 13
-89 51 -110 17 -9 33 -28 37 -42 11 -48 33 -63 83 -56 42 5 46 4 61 -23 19
-33 60 -43 134 -31 28 5 75 6 106 3 64 -6 74 4 63 64 -5 27 -20 45 -65 81 -33
25 -59 51 -59 59 0 8 -10 27 -21 43 -26 34 -21 61 20 122 21 31 27 47 20 59
-9 17 14 77 35 91 6 4 41 8 78 8 57 0 69 -3 78 -20 9 -16 15 -18 36 -10 36 14
69 12 112 -6 l37 -15 -32 -14 c-45 -19 -46 -58 -3 -80 44 -23 42 -65 -6 -107
-30 -27 -35 -36 -30 -62 4 -16 13 -38 22 -47 9 -10 13 -22 10 -28 -4 -5 -10
-31 -15 -56 -7 -37 -5 -53 7 -75 14 -24 14 -32 3 -53 -16 -29 -14 -32 38 -107
35 -50 37 -55 19 -58 -10 -2 -17 -9 -15 -15 7 -23 33 -17 74 18 43 37 64 88
44 108 -6 6 -11 18 -11 27 0 8 -9 21 -21 28 -13 8 -19 21 -17 35 3 20 10 22
65 25 77 4 94 23 92 110 -2 78 5 95 47 114 30 14 39 14 62 2 28 -14 38 -12 27
6 -10 16 -93 53 -104 46 -12 -8 -102 36 -120 58 -7 9 -24 14 -39 12 -15 -2
-22 -2 -17 1 12 4 13 82 2 100 -4 6 2 35 14 65 16 40 19 64 14 98 -12 83 -11
94 8 98 10 2 24 -3 30 -11 16 -20 65 -27 96 -15 36 13 101 -8 101 -34 0 -15 8
-18 44 -18 35 0 47 5 60 25 21 32 20 61 -4 100 -20 32 -22 33 -108 38 -48 3
-98 8 -112 10 -14 3 -36 3 -50 0z m-624 -604 c11 -19 -7 -45 -51 -72 -25 -16
-54 -40 -65 -54 -11 -15 -22 -24 -23 -22 -13 16 -37 101 -32 109 7 11 80 46
110 52 24 5 53 -1 61 -13z m525 -72 c-13 -13 -26 -3 -16 12 3 6 11 8 17 5 6
-4 6 -10 -1 -17z"/>
<path d="M4332 5174 c-58 -49 -75 -86 -68 -139 5 -33 3 -47 -13 -66 -18 -22
-21 -23 -36 -8 -9 9 -21 36 -26 60 -16 72 -32 88 -77 82 -24 -3 -42 -1 -46 6
-4 6 -16 11 -26 11 -17 0 -19 -5 -13 -32 3 -18 14 -49 24 -68 23 -44 28 -162
9 -185 -8 -9 -26 -23 -42 -31 -41 -21 -35 -41 15 -49 31 -6 51 -18 78 -46 l35
-38 26 26 c39 38 60 26 56 -34 l-3 -48 -60 -10 -60 -10 0 -150 c-1 -82 -4
-162 -8 -177 -14 -54 -91 -48 -130 10 -20 31 -24 46 -20 88 7 68 -12 88 -78
82 -102 -10 -145 -78 -98 -154 16 -27 17 -33 5 -28 -11 4 -16 1 -16 -10 0 -9
-9 -25 -20 -36 -10 -10 -15 -22 -10 -25 5 -3 12 -30 16 -61 3 -30 12 -60 19
-67 6 -7 14 -35 18 -63 5 -44 3 -51 -11 -50 -29 2 -19 -23 18 -43 52 -27 54
-87 5 -109 -14 -7 -25 -20 -25 -31 0 -16 9 -21 53 -26 70 -9 140 -3 145 12 2
7 -15 30 -38 50 -38 34 -41 40 -35 74 6 33 4 38 -16 44 -22 7 -22 8 -3 19 11
6 39 26 62 45 47 38 48 55 7 99 -28 30 -23 51 20 80 25 18 44 22 81 20 l49 -3
10 -66 c12 -72 8 -86 -32 -107 -17 -10 -25 -9 -36 3 -13 13 -16 12 -21 -9 -3
-13 -1 -38 5 -55 6 -18 9 -44 6 -59 -3 -16 4 -51 19 -90 31 -77 29 -104 -11
-116 -106 -32 -170 -88 -163 -143 2 -21 10 -30 34 -38 17 -6 39 -16 48 -24 15
-13 15 -15 0 -32 -12 -13 -22 -15 -42 -9 -15 5 -54 11 -87 13 -43 2 -71 11
-100 29 -22 15 -63 29 -90 33 -59 7 -68 12 -84 43 -10 20 -10 27 3 41 9 10 16
23 16 29 0 6 25 25 54 42 32 18 58 40 61 53 6 21 14 41 40 102 7 17 12 44 11
60 -1 28 -4 30 -47 35 -57 7 -105 50 -68 62 6 2 17 26 23 52 20 77 -17 156
-73 156 -34 0 -42 -7 -69 -53 -23 -41 -32 -150 -12 -162 26 -16 -9 -105 -62
-159 -24 -23 -29 -35 -25 -60 3 -17 7 -40 9 -51 2 -17 -3 -21 -34 -23 -29 -3
-44 -11 -64 -38 -15 -19 -32 -34 -40 -34 -17 0 -34 31 -34 62 0 47 -45 63 -88
32 -13 -9 -35 -34 -49 -57 l-26 -41 23 -44 c27 -49 68 -73 82 -47 12 20 37 19
62 -3 12 -10 33 -23 48 -30 23 -9 30 -8 52 13 14 13 26 29 26 35 0 15 70 -16
93 -41 17 -18 17 -24 6 -70 -14 -52 -36 -68 -77 -55 -18 6 -20 0 -24 -89 -7
-135 -6 -140 55 -162 47 -16 52 -21 59 -57 11 -53 34 -76 73 -76 46 0 68 29
67 87 -2 63 8 78 44 69 16 -4 66 -13 112 -18 77 -11 85 -10 110 9 24 18 27 28
32 99 3 43 9 85 13 92 10 15 66 16 104 1 55 -21 57 -58 7 -104 -35 -33 -36
-35 -44 -132 -4 -54 -14 -111 -21 -126 -12 -27 -13 -27 -23 -9 -21 39 -105
122 -124 122 -10 0 -24 6 -31 13 -11 10 -14 10 -18 0 -3 -7 -10 -13 -16 -13
-23 0 -92 -41 -114 -68 -32 -38 -32 -128 1 -199 l24 -52 -29 -10 -30 -10 7
-64 c5 -48 3 -71 -9 -93 -12 -24 -15 -59 -13 -159 3 -150 7 -157 96 -154 99 4
117 23 104 112 -4 29 -7 88 -8 131 l-1 79 -35 12 c-28 10 -34 17 -32 36 2 13
4 41 5 62 1 30 6 39 24 43 34 9 40 -1 45 -66 4 -57 7 -62 58 -111 l54 -51 53
13 c55 13 113 62 113 95 0 27 -70 86 -113 96 -23 5 -49 16 -59 25 -17 16 -15
22 32 103 5 8 11 23 14 33 10 31 36 18 106 -53 38 -39 75 -70 82 -71 124 -4
348 -2 355 4 13 14 16 231 3 304 -7 37 -12 87 -11 109 2 38 -1 43 -29 52 -18
7 -34 22 -41 39 -10 27 -11 27 -21 8 -18 -32 -28 -35 -149 -35 -114 0 -117 1
-133 25 -16 24 -16 26 9 53 14 15 28 37 31 50 4 12 19 29 35 38 16 8 29 21 29
29 0 8 11 22 25 31 20 13 31 14 56 5 18 -6 45 -11 60 -11 23 0 30 6 35 28 12
48 32 62 89 62 76 0 92 27 60 104 -13 30 -20 36 -46 36 -37 0 -99 27 -106 47
-3 8 4 35 17 60 27 54 23 99 -15 148 -31 41 -53 49 -100 36 -33 -9 -39 -7 -70
21 -19 16 -35 33 -35 37 0 22 55 30 172 24 104 -5 129 -3 156 11 17 9 32 21
32 27 0 5 11 -2 24 -17 22 -26 25 -27 57 -14 19 7 41 19 49 25 30 24 70 26
108 6 55 -29 130 -34 150 -10 27 31 55 23 106 -31 26 -27 52 -50 58 -50 7 0 6
-5 -1 -14 -7 -8 -16 -28 -20 -44 -13 -44 19 -72 82 -72 41 0 49 3 57 25 6 15
17 25 29 25 11 0 25 9 31 20 13 25 67 35 105 19 17 -6 39 -12 50 -13 14 -1 21
-9 23 -27 2 -17 11 -29 25 -34 22 -7 22 -7 -3 -15 -14 -4 -38 -8 -54 -9 -29
-1 -55 -24 -56 -51 -1 -36 -16 -43 -50 -26 -51 25 -149 21 -211 -9 -29 -13
-56 -22 -60 -19 -5 3 -9 27 -9 54 0 61 -32 140 -57 140 -10 0 -29 -7 -42 -16
-22 -16 -23 -20 -16 -98 7 -85 28 -136 55 -136 31 0 50 -25 60 -79 7 -39 22
-70 50 -105 l39 -51 -36 -3 c-44 -4 -119 26 -103 42 5 5 10 20 10 32 0 16 -8
23 -30 27 -16 4 -38 16 -47 27 -25 29 -38 25 -37 -13 2 -49 3 -54 18 -70 13
-12 13 -17 2 -33 -13 -16 -17 -17 -56 -4 -24 8 -58 30 -77 49 l-33 34 27 19
28 18 -37 1 c-21 1 -44 2 -50 3 -7 1 -13 -10 -13 -22 -1 -30 -24 -47 -91 -67
-120 -35 -163 -133 -93 -213 16 -18 29 -37 29 -43 0 -5 10 -23 22 -39 l21 -29
28 24 c16 13 51 28 79 34 48 10 53 9 85 -14 18 -15 36 -32 39 -40 3 -8 32 -28
65 -45 65 -32 66 -35 30 -101 -8 -16 -5 -29 14 -63 l24 -43 -24 -27 c-14 -16
-23 -40 -23 -59 0 -51 -19 -107 -36 -107 -9 0 -39 16 -68 35 -29 19 -61 35
-71 35 -10 0 -38 -15 -64 -33 -26 -19 -58 -36 -71 -40 -28 -7 -54 -69 -37 -86
5 -5 15 -38 22 -72 15 -69 11 -79 -33 -79 -27 0 -44 -37 -36 -78 5 -24 -1 -36
-34 -70 -36 -37 -41 -40 -47 -23 -6 21 -21 29 -74 42 -39 9 -101 -11 -101 -33
0 -7 -9 -30 -19 -49 l-20 -37 25 -23 c18 -17 23 -30 19 -46 -3 -13 1 -36 10
-52 8 -17 12 -36 9 -44 -6 -17 31 -47 59 -47 10 0 31 7 48 15 29 16 99 12 99
-5 0 -4 -27 -25 -60 -46 -33 -22 -60 -42 -60 -46 0 -23 -35 -1 -76 47 -36 41
-59 58 -89 66 -22 6 -50 23 -61 37 -19 23 -25 25 -50 17 -25 -9 -29 -16 -32
-52 -3 -34 0 -42 17 -48 13 -4 21 -15 21 -28 0 -19 -1 -19 -12 -4 -19 25 -80
12 -114 -24 -24 -25 -27 -38 -31 -105 -4 -86 -6 -94 -33 -94 -24 0 -40 29 -40
71 0 21 -9 42 -24 58 -13 15 -28 42 -35 61 -10 30 -9 37 9 54 11 11 32 21 47
22 16 1 34 3 41 3 7 1 12 16 12 39 0 21 6 47 14 58 13 16 18 17 45 8 25 -10
32 -9 43 4 28 34 69 51 98 40 51 -17 95 30 75 79 -4 10 -8 31 -9 48 -1 27 -5
30 -41 35 -55 8 -65 16 -65 53 0 46 -8 52 -75 53 -67 2 -75 -4 -75 -57 0 -28
-8 -45 -35 -73 -19 -21 -33 -42 -30 -46 3 -5 6 -25 7 -45 1 -42 -15 -58 -50
-50 -13 3 -33 3 -44 -1 -17 -5 -19 -12 -14 -42 3 -20 0 -55 -5 -79 -10 -38
-13 -41 -31 -32 -10 6 -33 9 -51 7 -31 -3 -32 -5 -41 -61 -8 -52 -7 -59 12
-80 29 -31 28 -50 -6 -89 -16 -18 -37 -46 -46 -63 -19 -32 -92 -89 -99 -77 -3
4 -8 27 -12 52 -4 25 -11 50 -16 56 -13 16 -1 42 21 49 11 3 22 15 25 26 10
29 47 60 66 54 9 -3 22 1 28 9 10 12 7 26 -13 69 -14 30 -26 63 -26 75 0 21
12 26 89 34 19 2 27 11 33 36 8 30 6 37 -18 59 -26 24 -29 25 -58 11 -84 -41
-85 -41 -99 -30 -21 18 -42 -5 -63 -68 -10 -30 -24 -64 -31 -75 -7 -11 -13
-26 -13 -35 0 -8 -7 -28 -15 -44 -20 -38 -19 -46 5 -46 27 0 27 -40 0 -47 -15
-4 -18 -11 -13 -33 4 -25 0 -32 -35 -54 -22 -14 -43 -29 -46 -35 -7 -11 -9
-63 -3 -118 4 -38 2 -41 -24 -47 -34 -6 -46 -27 -55 -93 l-6 -50 43 -6 c32 -4
50 -14 67 -34 12 -15 27 -34 34 -41 8 -10 31 -13 86 -10 52 2 76 -1 79 -9 7
-21 -41 -37 -112 -38 -52 0 -82 -6 -116 -22 -91 -45 -110 -27 -104 95 4 77 3
82 -21 101 -39 31 -63 35 -85 15 -10 -9 -19 -22 -19 -27 0 -6 -14 -39 -31 -74
-27 -55 -33 -62 -53 -57 -37 9 -78 -33 -85 -87 -6 -40 -9 -44 -43 -52 -22 -5
-48 -21 -62 -38 -19 -23 -33 -29 -63 -29 -46 0 -83 9 -83 21 0 4 26 41 58 81
72 91 102 140 102 165 0 17 -68 73 -89 73 -14 0 -45 -40 -72 -93 -33 -66 -57
-72 -84 -20 -40 80 -70 97 -112 68 -16 -11 -34 -14 -63 -9 -35 6 -47 3 -83
-23 -23 -17 -46 -29 -52 -27 -5 1 -22 5 -36 8 -22 5 -28 13 -31 42 -8 64 33
74 222 54 120 -13 162 -8 189 22 18 18 19 32 15 147 -4 123 -5 127 -32 149
-23 20 -34 22 -82 17 -55 -5 -55 -5 -74 29 -28 52 -57 61 -114 33 -28 -13 -52
-33 -60 -50 -15 -31 -47 -36 -61 -8 -8 14 -6 23 9 36 28 26 25 58 -10 96 -17
17 -29 38 -26 45 10 25 54 45 117 50 53 5 67 3 78 -10 11 -13 11 -22 2 -42 -6
-14 -11 -39 -11 -55 0 -24 4 -30 18 -27 11 2 24 26 39 72 12 38 27 74 33 80 5
5 10 33 10 61 0 67 -18 78 -135 86 -60 4 -109 13 -145 28 -30 13 -73 28 -95
33 -22 6 -52 24 -67 39 -15 16 -34 29 -42 29 -30 0 -16 30 27 57 23 15 47 33
53 40 9 11 18 7 42 -22 36 -40 71 -46 102 -15 19 19 20 19 29 1 14 -25 50 -34
58 -15 5 13 0 28 -25 75 -6 12 41 18 60 8 15 -8 20 -5 28 17 15 39 -9 71 -62
81 -36 8 -45 6 -56 -9 -14 -19 -47 -24 -57 -8 -13 21 -52 10 -64 -17 -12 -26
-12 -26 -30 -7 -10 10 -22 35 -25 54 -5 32 -2 40 31 72 41 38 98 63 109 47 3
-5 0 -16 -6 -24 -17 -20 6 -20 55 1 38 15 100 12 135 -7 23 -13 91 -39 102
-39 5 0 0 12 -11 26 -29 37 -27 47 19 79 23 16 40 36 40 47 0 11 5 16 10 13 6
-4 10 -53 10 -116 0 -86 3 -109 14 -109 7 0 21 12 31 26 15 23 15 33 4 90 -12
58 -11 68 5 94 9 17 18 47 20 67 2 39 26 57 42 32 4 -7 8 -77 9 -156 1 -78 5
-146 9 -150 4 -4 15 -2 24 4 14 8 17 27 18 94 0 46 4 96 8 111 5 16 4 41 -3
59 -8 24 -7 35 6 55 20 31 30 153 14 182 -21 40 -96 21 -113 -28 -3 -10 -12
-7 -35 9 -37 28 -53 21 -53 -20 0 -20 -4 -29 -12 -26 -7 2 -12 11 -10 19 1 8
-5 28 -13 44 -21 41 -19 81 4 94 11 5 49 10 85 10 36 0 68 5 71 11 15 23 -6
59 -45 79 l-40 20 0 69 c0 97 -20 112 -125 95 -56 -9 -81 -35 -89 -95 -7 -51
-20 -63 -31 -29 -3 11 -18 25 -33 33 -23 11 -27 18 -25 51 3 50 37 104 77 120
28 12 33 11 53 -11 25 -27 41 -29 49 -8 8 19 -13 45 -35 45 -25 1 -81 57 -81
82 0 13 -7 32 -15 42 -8 11 -15 38 -15 61 0 47 -19 79 -61 100 -19 10 -29 23
-29 38 0 12 -7 31 -15 41 -8 11 -15 28 -15 38 0 14 -8 18 -38 18 -27 0 -45 7
-58 21 -18 20 -18 21 -1 34 11 8 33 11 57 8 55 -8 62 18 21 87 -27 46 -67 143
-113 275 -11 33 -27 69 -34 80 -16 23 -19 81 -4 90 18 11 11 45 -9 45 -24 0
-34 -26 -20 -51 6 -11 7 -35 4 -52 -10 -49 -48 -127 -62 -127 -7 0 -13 -11
-13 -25 0 -14 -4 -25 -10 -25 -13 0 -13 16 1 42 19 35 -32 128 -71 128 -9 0
-20 4 -26 10 -5 5 -27 16 -49 23 l-39 14 47 11 c50 13 60 31 32 62 -20 23 -24
144 -6 187 12 29 11 34 -11 63 l-23 32 -115 -7 c-95 -5 -124 -11 -168 -32 -57
-28 -82 -55 -82 -90 0 -32 18 -38 29 -10 18 47 59 39 49 -10 -2 -12 -11 -17
-26 -15 -30 4 -28 -8 8 -53 17 -21 30 -41 30 -45 0 -18 -49 -39 -81 -34 -28 5
-39 1 -62 -24 l-28 -29 22 -46 23 -46 -27 -27 c-36 -36 -44 -87 -23 -146 16
-47 16 -49 -4 -70 -23 -25 -24 -34 -10 -147 8 -64 8 -86 -1 -98 -10 -12 -10
-16 2 -24 19 -12 80 -11 99 1 13 9 13 12 -2 24 -21 15 -24 46 -5 46 7 0 39
-22 72 -50 46 -39 67 -50 93 -50 33 0 34 1 28 33 -4 22 -26 51 -72 96 -63 60
-69 63 -105 58 -35 -5 -39 -3 -39 17 0 12 15 37 33 54 33 32 36 33 113 30 l79
-3 5 -57 c3 -38 12 -64 26 -80 27 -29 33 -49 24 -68 -4 -8 -10 -36 -14 -61
l-7 -46 38 -6 c26 -5 42 -2 54 9 14 12 22 13 38 4 26 -13 28 -40 4 -41 -10 -1
-48 0 -84 1 -46 1 -71 -3 -80 -12 -11 -12 -19 -11 -57 9 -32 17 -48 21 -55 14
-6 -6 -18 -11 -27 -11 -8 0 -23 -9 -33 -20 -9 -11 -26 -20 -37 -20 -13 0 -20
-7 -20 -20 0 -12 -7 -32 -16 -46 -15 -22 -15 -30 -4 -64 23 -69 84 -88 96 -31
12 57 22 71 54 71 32 0 80 40 80 67 0 30 19 1 30 -48 10 -39 10 -67 0 -132 -7
-45 -18 -88 -23 -96 -8 -10 -7 -16 6 -26 14 -10 14 -15 3 -30 -12 -17 -47 -18
-86 -1 -8 3 -29 -3 -47 -13 -29 -18 -31 -23 -23 -52 5 -17 17 -37 27 -44 17
-12 23 -37 23 -92 0 -27 31 -31 50 -8 7 8 19 15 27 15 14 0 93 -77 93 -92 0
-4 16 -8 35 -8 29 0 37 5 45 26 17 44 12 53 -30 60 -22 4 -45 13 -51 20 -6 8
-24 14 -38 14 -34 0 -80 43 -59 56 7 5 56 10 108 12 52 3 103 8 113 14 21 11
22 51 2 68 -24 20 -18 48 15 65 25 13 34 13 53 3 12 -6 38 -14 57 -18 53 -8
52 -36 -2 -51 -71 -20 -70 -16 -73 -223 -4 -217 -7 -209 103 -222 34 -3 62
-10 62 -13 0 -14 -32 -51 -45 -51 -7 0 -27 -13 -45 -30 -18 -16 -33 -30 -35
-30 -1 0 -5 12 -8 28 -3 15 -29 53 -57 84 -54 60 -120 98 -171 98 -28 0 -33 7
-30 42 2 11 -7 19 -26 24 -15 3 -35 8 -44 10 -9 3 -26 -4 -39 -14 -19 -16 -21
-24 -15 -60 6 -38 10 -42 35 -42 36 0 46 -14 53 -73 3 -35 13 -58 34 -80 16
-18 43 -51 61 -74 28 -37 31 -45 21 -67 -10 -21 -7 -29 17 -60 16 -20 37 -39
47 -42 21 -6 21 -8 2 -59 -27 -77 -13 -144 42 -199 l26 -26 -44 -20 c-24 -11
-54 -20 -65 -20 -35 0 -48 -66 -19 -90 26 -22 91 -17 118 8 26 25 52 28 64 9
4 -8 16 -18 26 -24 17 -9 16 -11 -7 -34 -13 -14 -28 -37 -31 -52 -7 -25 -5
-27 24 -27 33 0 43 13 55 71 6 27 46 47 66 34 15 -9 12 -38 -5 -61 -17 -22
-20 -70 -5 -79 5 -3 10 -26 10 -50 0 -49 16 -65 68 -65 32 0 42 -14 42 -58 0
-14 5 -40 12 -58 11 -30 9 -34 -19 -58 -27 -22 -31 -34 -37 -96 -7 -65 -19
-96 -28 -68 -3 7 -29 15 -58 18 -51 5 -54 7 -63 40 -7 28 -5 36 9 47 10 7 28
13 41 13 26 0 28 7 11 63 -11 38 -11 41 15 63 32 28 35 60 6 67 -15 4 -20 13
-18 34 1 15 1 45 1 65 -2 32 -6 39 -29 44 -23 6 -32 1 -60 -31 -33 -38 -42
-68 -23 -80 20 -13 9 -22 -33 -28 -23 -3 -58 -2 -78 2 -46 11 -69 -2 -69 -38
0 -25 3 -28 25 -23 13 2 32 1 41 -2 15 -6 15 -8 1 -24 -8 -9 -19 -29 -22 -44
-4 -17 -14 -28 -24 -28 -13 0 -16 -8 -13 -39 2 -21 -1 -42 -7 -45 -6 -4 -11
-31 -11 -60 0 -59 -5 -69 -29 -56 -22 11 -46 -4 -38 -24 9 -22 37 -32 47 -17
9 16 20 -9 20 -45 0 -19 -5 -24 -25 -24 -13 0 -28 8 -34 17 -9 16 -13 16 -56
-6 -39 -19 -56 -22 -98 -17 -27 4 -59 13 -70 21 -18 12 -23 11 -51 -17 -29
-30 -31 -37 -37 -127 -6 -101 4 -143 43 -183 23 -23 88 -58 108 -58 9 0 11 -3
4 -8 -6 -4 -19 -22 -29 -40 -18 -30 -18 -34 -3 -60 23 -38 46 -40 50 -5 2 20
9 29 26 31 28 4 29 -17 1 -47 -12 -12 -19 -24 -16 -27 8 -8 56 7 68 22 17 20
47 17 59 -6 12 -22 40 -26 57 -9 8 8 34 8 99 -2 86 -13 87 -12 106 11 17 21
20 22 36 6 22 -19 43 -21 60 -4 15 15 16 50 1 65 -16 16 36 24 86 14 22 -5 32
-9 23 -10 -16 -1 -56 -47 -47 -55 35 -31 136 -47 168 -27 15 10 7 46 -16 72
-12 15 -11 18 15 27 26 9 31 17 37 59 3 28 2 60 -5 77 -13 34 6 96 28 96 8 0
43 -25 77 -55 66 -58 84 -65 105 -40 7 8 26 15 43 15 20 0 41 10 58 26 46 44
52 22 8 -31 -56 -67 -86 -87 -126 -81 -34 5 -105 -26 -140 -61 -15 -15 -17
-25 -9 -66 8 -39 14 -49 35 -54 26 -6 45 2 146 70 31 20 60 35 66 32 5 -4 9
-24 9 -47 0 -36 2 -40 21 -35 12 3 30 0 40 -6 17 -10 24 -6 57 32 34 40 40 43
70 36 18 -3 32 -11 32 -16 0 -5 14 -24 32 -41 30 -29 34 -30 98 -26 40 3 77
12 94 23 27 18 29 18 63 0 41 -23 133 -26 157 -6 10 8 16 29 16 51 0 44 -46
140 -67 140 -14 0 -34 39 -26 52 2 5 15 8 29 8 17 0 30 -10 43 -32 11 -18 34
-52 53 -75 27 -35 39 -43 65 -43 33 0 43 -16 23 -36 -6 -6 -7 -24 -4 -41 8
-39 51 -51 97 -28 35 17 73 20 82 5 9 -15 62 -12 97 6 29 15 34 15 59 0 37
-22 92 -21 112 2 22 24 22 75 0 94 -33 29 -61 31 -102 8 -35 -20 -40 -21 -62
-7 -32 20 -87 23 -122 7 -18 -9 -31 -10 -38 -3 -6 6 8 22 45 46 56 37 92 45
126 27 21 -11 50 -3 50 14 0 7 13 22 28 33 l28 20 29 -24 c17 -13 40 -28 53
-33 24 -10 25 -18 22 -136 -2 -74 -7 -71 145 -64 l110 5 -1 60 c0 33 -2 79 -4
103 -2 23 -1 45 3 48 7 8 42 9 152 5 l90 -4 -88 -7 c-48 -4 -92 -11 -97 -16
-16 -16 -24 -162 -10 -179 15 -18 61 -20 78 -3 9 9 15 9 24 0 15 -15 84 -16
93 -2 8 14 41 13 65 -2 15 -10 24 -9 44 2 20 10 31 11 51 2 44 -20 206 -15
259 8 36 15 52 17 73 9 14 -5 28 -7 30 -5 7 7 -34 63 -57 79 -11 8 -41 43 -68
78 -27 37 -62 71 -82 80 -32 15 -38 15 -65 2 -16 -8 -50 -32 -75 -53 l-45 -37
-17 22 c-17 23 -17 23 12 34 43 14 55 48 42 113 -6 32 -7 59 -1 70 22 40 -4
88 -48 88 -22 0 -50 -50 -38 -69 3 -6 -4 -21 -17 -34 -22 -22 -29 -23 -158
-21 -74 1 -138 3 -142 3 -5 1 -9 20 -9 44 l-1 42 -10 -42 c-9 -37 -14 -42 -46
-48 -48 -9 -58 4 -45 61 8 33 8 56 1 78 -15 43 -54 93 -79 101 -16 5 -18 10
-8 21 14 17 211 20 253 4 22 -8 25 -14 20 -40 -4 -17 -2 -36 5 -44 7 -9 11
-40 9 -78 -2 -51 0 -63 12 -63 12 0 14 13 12 75 -4 69 -2 77 21 99 14 12 30
20 36 16 7 -4 11 -44 11 -101 0 -56 4 -94 10 -94 6 0 10 29 10 68 0 91 7 112
36 112 16 0 28 -10 39 -30 17 -33 36 -37 86 -16 19 8 50 16 69 18 28 2 36 -1
47 -22 7 -14 13 -19 13 -12 0 7 9 25 21 41 14 19 19 39 17 62 l-3 34 -77 5
c-43 4 -83 11 -90 18 -7 7 -29 12 -50 12 -32 0 -40 -4 -50 -27 -11 -26 -13
-21 -21 54 l-10 81 -34 4 c-26 3 -38 -1 -49 -16 -14 -20 -15 -20 -25 -3 -8 13
-18 17 -34 13 -17 -4 -24 -1 -28 13 -2 10 -17 21 -36 24 -30 6 -31 8 -31 59 0
135 25 162 80 86 23 -31 29 -49 25 -67 -4 -17 1 -31 16 -47 21 -22 24 -23 41
-7 10 9 18 30 18 49 0 30 27 64 52 64 4 0 10 -31 14 -69 3 -39 15 -83 25 -100
40 -66 158 -109 234 -86 119 35 180 178 126 291 -26 53 -51 73 -113 94 -28 9
-53 21 -55 27 -2 6 18 13 44 16 36 4 53 1 66 -10 13 -13 22 -14 41 -5 19 8 25
21 31 59 8 61 18 78 40 69 14 -5 16 -15 10 -70 -6 -57 -5 -66 15 -86 19 -19
27 -21 73 -14 29 5 93 7 143 5 74 -2 94 0 107 14 10 9 17 21 17 26 0 5 13 9
29 9 20 0 43 -13 77 -45 42 -38 55 -45 91 -45 42 0 91 21 125 53 27 26 45 101
31 136 -6 17 -7 34 -2 42 5 8 8 28 7 44 -2 36 17 75 37 75 27 0 85 42 91 67 8
31 -21 97 -56 127 l-27 22 23 29 c19 23 26 27 36 17 19 -19 44 -14 62 13 22
34 20 55 -10 86 l-26 27 18 41 c10 23 21 41 26 41 14 0 9 41 -7 56 -24 24 -18
71 13 110 15 18 30 34 33 34 3 0 17 -22 29 -49 l24 -49 29 18 c33 20 67 71 67
100 0 30 -30 113 -49 134 -9 10 -33 29 -53 42 -31 20 -38 30 -38 57 0 20 -12
53 -30 80 -16 26 -30 53 -30 60 0 7 -20 39 -45 72 -50 66 -51 71 -31 111 10
19 12 33 5 45 -5 10 -9 26 -9 37 0 24 -21 33 -60 26 -37 -8 -57 -58 -42 -103
12 -34 6 -44 -17 -31 -10 5 -23 5 -32 -1 -19 -12 -56 -11 -64 1 -10 16 15 118
33 137 9 9 22 26 27 37 9 17 20 21 59 19 26 -1 61 -7 76 -13 39 -16 65 -6 90
35 l21 34 -20 46 -20 45 -55 0 c-52 0 -78 11 -56 25 5 3 10 14 10 25 0 17 7
18 99 13 54 -3 115 -3 135 1 l36 7 0 108 c0 84 -3 111 -15 121 -8 7 -15 25
-15 41 0 33 -23 49 -69 49 -33 0 -37 -6 -21 -30 13 -20 -10 -42 -76 -76 -56
-28 -64 -38 -40 -47 10 -4 14 -23 14 -64 -1 -100 -4 -104 -78 -81 -43 14 -46
21 -29 65 7 15 12 76 13 135 2 145 3 146 151 149 61 1 115 0 120 -1 6 -1 18
-2 29 -1 14 1 17 6 11 24 -4 12 -11 43 -17 70 -8 34 -20 55 -42 72 -61 49 -67
58 -60 85 17 57 7 91 -43 142 -26 27 -61 52 -76 55 -16 3 -35 16 -44 29 -12
19 -25 24 -76 26 -55 3 -63 6 -74 29 -21 44 -50 62 -108 67 -46 4 -62 11 -99
43 -24 21 -56 43 -71 49 -24 9 -31 6 -68 -31 -41 -40 -43 -41 -96 -36 -30 3
-59 11 -65 17 -6 6 -11 34 -11 61 0 41 -5 55 -24 70 -28 23 -54 24 -86 3 -30
-19 -33 -60 -9 -105 18 -36 17 -37 -23 -45 -35 -7 -42 8 -43 86 0 35 -8 55
-34 91 -41 56 -98 79 -191 79 -56 0 -65 -3 -103 -36z m158 -119 c0 -1 -7 -8
-15 -15 -13 -10 -15 -9 -15 8 0 15 5 20 15 16 8 -4 15 -7 15 -9z m174 -161
c11 -4 16 -19 16 -45 0 -37 -1 -38 -29 -33 -22 5 -37 0 -57 -15 -15 -11 -35
-21 -46 -21 -26 0 -60 -19 -53 -29 3 -5 -2 -25 -11 -46 -11 -27 -12 -40 -4
-50 8 -9 6 -14 -6 -19 -36 -14 -70 -5 -99 25 -16 16 -40 41 -52 53 -14 14 -23
36 -23 54 0 17 -4 33 -9 36 -13 8 -20 42 -11 56 6 9 15 7 38 -10 55 -41 183
-48 224 -13 12 11 94 60 105 63 1 0 8 -3 17 -6z m606 -97 c0 -32 -11 -44 -100
-115 l-55 -44 -17 39 c-10 21 -17 51 -15 67 2 24 9 31 54 48 39 14 55 26 59
43 6 23 6 24 40 8 27 -14 34 -22 34 -46z m-503 -33 c31 -19 57 -17 78 6 12 13
31 20 57 20 42 0 43 -3 27 -65 -5 -22 -11 -62 -12 -90 -2 -47 -4 -50 -29 -53
-35 -4 -37 17 -7 60 l22 30 -28 24 c-31 27 -37 28 -82 15 -43 -12 -68 -4 -82
25 -18 40 -14 56 12 49 12 -4 32 -13 44 -21z m534 -84 c13 -7 25 -7 38 -1 18
10 30 2 70 -51 12 -15 10 -19 -13 -28 -17 -6 -24 -14 -20 -25 3 -8 10 -15 15
-15 12 0 12 -37 0 -59 -14 -25 -142 -28 -164 -3 -24 27 -29 58 -12 72 9 8 12
18 6 29 -10 20 -4 40 22 69 23 25 30 26 58 12z m242 -88 c18 -19 26 -37 25
-57 -1 -17 1 -40 5 -52 6 -17 0 -28 -38 -58 -42 -35 -48 -37 -90 -31 -25 4
-45 11 -45 15 0 4 19 34 41 65 23 33 43 72 44 89 2 18 3 38 4 45 2 20 26 14
54 -16z m-934 -21 l25 -19 -39 -48 c-38 -46 -40 -47 -46 -23 -9 31 -11 114 -3
122 7 7 27 -3 63 -32z m511 -4 l0 -33 -52 6 c-61 6 -71 24 -16 28 20 2 42 10
48 18 18 20 20 18 20 -19z m-238 -64 c31 -30 38 -44 38 -75 0 -51 -15 -49 -79
12 -29 28 -60 50 -69 50 -10 0 -32 -13 -50 -29 -41 -38 -45 -86 -7 -103 13 -6
27 -19 30 -30 9 -25 55 -24 62 2 6 23 79 48 95 32 30 -30 -53 -109 -124 -118
-41 -5 -46 -3 -95 43 -44 41 -53 54 -53 83 0 50 31 131 55 142 11 5 31 16 45
24 42 25 107 11 152 -33z m-3214 31 c22 -6 22 -7 -10 -30 -17 -13 -37 -24 -44
-24 -6 0 -17 -7 -24 -15 -17 -20 -32 -19 -90 8 -46 20 -61 42 -43 60 8 9 180
9 211 1z m2780 -15 c12 -7 22 -17 22 -20 0 -18 -170 -28 -222 -13 -21 6 -23
25 -6 42 16 16 176 10 206 -9z m747 -80 c9 -17 15 -33 12 -35 -10 -11 -37 10
-46 37 -14 41 13 40 34 -2z m-3438 -21 c-3 -8 -6 -5 -6 6 -1 11 2 17 5 13 3
-3 4 -12 1 -19z m3296 4 c15 -2 27 -9 27 -14 0 -19 -21 -48 -35 -48 -14 0 -35
-29 -35 -48 0 -5 13 -24 29 -43 31 -35 32 -55 3 -39 -9 5 -29 11 -44 15 -43 8
-50 34 -32 107 22 91 22 91 42 83 9 -4 29 -10 45 -13z m-451 -128 c2 -29 -1
-39 -17 -45 -32 -12 -34 -11 -46 31 -9 31 -9 49 1 85 l13 46 23 -40 c12 -22
24 -57 26 -77z m-3045 92 c4 -3 6 -19 6 -36 0 -30 -23 -64 -55 -81 -23 -13
-75 14 -90 46 -14 30 -3 72 20 77 25 6 112 2 119 -6z m2963 -60 c0 -2 -3 -11
-6 -20 -9 -23 -24 -20 -24 4 0 11 7 20 15 20 8 0 15 -2 15 -4z m874 -17 c32
-25 34 -60 4 -93 -35 -38 -63 -42 -93 -12 -31 31 -32 72 -3 103 27 29 57 29
92 2z m-3511 -51 c-3 -24 -9 -47 -14 -52 -5 -6 -9 -18 -9 -27 0 -9 -11 -24
-24 -32 -22 -15 -24 -14 -34 8 -13 29 -55 52 -111 61 -47 7 -50 15 -20 45 28
28 104 22 128 -10 16 -21 16 -21 45 14 16 19 33 35 37 35 4 0 5 -19 2 -42z
m3339 -101 c3 -115 4 -120 30 -142 27 -23 27 -23 5 -29 -28 -7 -76 -7 -105 0
l-23 6 21 35 c28 48 25 65 -20 125 l-40 53 30 8 c17 4 30 12 30 18 0 16 53 60
61 52 4 -5 9 -61 11 -126z m-303 41 c19 -52 -15 -75 -59 -40 -33 27 -15 56 38
61 7 0 16 -9 21 -21z m-186 -25 c-7 -2 -19 -2 -25 0 -7 3 -2 5 12 5 14 0 19
-2 13 -5z m-2803 -38 c20 -25 4 -29 -21 -6 -18 16 -19 21 -7 21 9 0 21 -7 28
-15z m158 -2 c-2 -10 -11 -19 -21 -21 -16 -3 -17 -1 -5 17 16 25 31 27 26 4z
m-298 -110 c1 -28 18 -34 64 -23 58 13 64 9 107 -66 20 -35 37 -54 49 -54 10
0 25 -8 32 -17 7 -10 36 -30 63 -45 l50 -27 3 -61 c2 -45 -1 -67 -12 -79 -10
-11 -12 -21 -6 -31 5 -8 10 -35 10 -59 0 -43 6 -69 36 -154 15 -44 10 -64 -17
-72 -12 -4 -19 -14 -17 -23 3 -13 21 -19 80 -27 42 -5 80 -13 83 -17 4 -4 0
-17 -9 -30 -22 -31 -20 -43 11 -72 15 -14 25 -28 22 -31 -3 -3 -44 -10 -90
-16 -46 -5 -87 -16 -91 -22 -4 -7 -8 -51 -8 -99 0 -99 -4 -103 -63 -62 -27 18
-35 29 -28 37 19 23 41 135 35 178 -3 24 -1 72 4 107 5 34 5 65 0 68 -4 3 -8
17 -8 30 0 15 -12 38 -28 54 l-28 28 19 26 c17 24 18 31 7 69 -7 23 -16 98
-20 167 -4 69 -8 126 -9 126 0 1 -28 4 -61 6 -33 2 -63 8 -67 12 -4 3 -2 21 5
38 10 27 9 38 -6 68 -22 41 -66 54 -74 22 -5 -16 -16 -21 -57 -23 -70 -5 -82
27 -23 63 31 18 42 21 42 11z m2 -260 c53 -52 52 -124 -1 -91 -32 19 -68 128
-44 128 4 0 24 -17 45 -37z m1673 -133 c-8 -9 -15 -22 -15 -28 0 -10 -30 -32
-44 -32 -12 0 -6 48 10 78 15 31 16 31 40 15 22 -14 23 -17 9 -33z m1865 -169
c0 -19 8 -35 21 -45 17 -11 20 -20 14 -45 -4 -17 -13 -35 -22 -39 -8 -5 -13
-19 -11 -33 2 -18 10 -25 31 -27 27 -3 32 -16 28 -63 -3 -24 50 -33 66 -12 52
67 87 101 108 106 28 5 29 4 39 -35 5 -23 1 -30 -24 -45 -17 -9 -32 -25 -35
-35 -4 -12 -22 -19 -62 -24 -34 -4 -63 -14 -74 -25 -17 -17 -18 -22 -6 -47 8
-15 22 -58 32 -96 14 -53 28 -78 57 -108 23 -24 45 -38 53 -34 8 3 24 2 36 -2
21 -8 21 -9 -8 -38 -16 -16 -38 -43 -50 -59 -19 -28 -20 -33 -7 -64 8 -19 22
-40 32 -47 16 -12 16 -13 -4 -14 -30 0 -50 -47 -30 -69 27 -29 3 -51 -54 -49
-59 3 -90 -20 -90 -66 0 -52 -13 -63 -52 -47 -44 18 -92 25 -123 17 -24 -6
-25 -8 -25 -100 0 -74 -3 -95 -15 -100 -8 -3 -15 -1 -15 4 0 5 -11 21 -25 36
-14 15 -25 39 -25 54 0 34 -18 90 -36 111 -20 22 -17 47 6 59 11 6 26 23 34
39 15 28 16 28 88 24 40 -2 85 -9 100 -15 27 -10 85 3 116 26 23 17 51 81 42
96 -5 8 -5 21 0 30 5 9 5 42 1 74 -4 32 -6 81 -3 108 6 61 -9 77 -72 79 -69 2
-91 12 -88 40 2 13 9 31 16 39 6 8 18 27 25 42 12 23 12 30 -3 53 -23 35 -50
31 -101 -16 -46 -43 -57 -78 -36 -118 8 -14 0 -28 -43 -70 -32 -32 -60 -52
-71 -49 -9 1 -27 19 -38 39 l-21 37 32 36 c35 40 41 80 17 112 -19 26 -19 32
6 39 13 4 27 0 40 -11 23 -21 44 -13 69 28 8 14 30 47 48 72 42 62 44 113 4
165 -46 58 -46 59 -5 78 93 42 113 43 113 4z m-642 -71 c4 -54 -10 -70 -38
-45 -14 13 -20 31 -20 60 0 51 7 59 34 41 15 -9 22 -26 24 -56z m384 -18 c33
-19 41 -46 24 -86 -16 -38 -80 -96 -105 -96 -11 0 -38 21 -60 46 -49 56 -57
112 -19 138 28 20 124 18 160 -2z m-1382 -7 c7 -8 21 -15 31 -15 22 0 49 -37
49 -67 0 -31 -5 -29 -51 17 -22 22 -46 40 -54 40 -8 0 -15 9 -15 20 0 24 22
26 40 5z m-107 -25 c-13 -5 -23 -16 -23 -25 0 -8 -4 -15 -8 -15 -5 0 -14 -10
-20 -22 l-11 -23 0 23 c-1 12 3 22 8 22 5 0 12 11 15 25 5 19 13 25 34 24 26
0 26 -1 5 -9z m2043 -194 c3 -8 -4 -33 -16 -56 -18 -36 -23 -40 -37 -28 -16
13 -43 68 -43 88 0 16 90 12 96 -4z m-1296 -76 c4 -18 15 -26 38 -31 40 -8 36
-4 48 -60 7 -31 7 -51 0 -63 -9 -13 -7 -19 7 -28 18 -9 18 -11 -3 -25 -13 -9
-19 -21 -15 -30 9 -25 -21 -60 -55 -65 -24 -4 -37 2 -60 23 -27 26 -27 28 -9
34 24 8 25 34 2 41 -10 3 -28 11 -41 17 -18 9 -25 8 -32 -3 -8 -13 -10 -12
-10 2 0 10 -9 22 -20 28 -18 10 -20 20 -19 100 l2 89 81 -2 c76 -2 80 -3 86
-27z m-2010 -29 c14 -27 -9 -40 -27 -16 -17 24 -17 35 2 35 8 0 19 -9 25 -19z
m1486 -99 c6 -4 13 -28 16 -54 5 -45 4 -48 -18 -48 -21 0 -64 41 -64 61 0 11
37 49 48 49 4 0 12 -4 18 -8z m-1280 -49 c-8 -60 -19 -72 -46 -48 -20 18 -22
18 -51 1 -37 -22 -62 -14 -57 16 3 20 10 23 49 26 34 2 53 10 69 27 35 37 44
31 36 -22z m-283 -3 c10 0 20 -8 24 -17 3 -10 13 -26 21 -36 13 -15 13 -21 2
-42 -10 -19 -11 -31 -2 -50 13 -29 9 -32 -48 -41 l-43 -7 7 37 c6 31 3 40 -19
60 -27 25 -45 71 -37 95 3 9 15 12 41 7 20 -3 44 -6 54 -6z m-446 -18 c-23
-51 -33 -62 -54 -62 -13 0 -23 2 -23 5 0 10 66 72 73 68 4 -2 6 -7 4 -11z
m3838 -2 c-3 -5 -10 -10 -16 -10 -5 0 -9 5 -9 10 0 6 7 10 16 10 8 0 12 -4 9
-10z m-3742 -47 c8 -10 19 -31 23 -48 13 -55 70 -125 101 -125 7 0 13 -9 13
-19 0 -18 -3 -19 -30 -10 -16 6 -30 15 -30 19 0 4 -36 11 -80 15 -73 6 -80 9
-75 26 5 14 0 22 -19 29 -14 5 -26 17 -26 27 0 15 85 101 101 103 3 0 13 -8
22 -17z m462 -3 c3 -5 -1 -10 -10 -10 -9 0 -13 5 -10 10 3 6 8 10 10 10 2 0 7
-4 10 -10z m2945 -9 c18 -35 12 -86 -14 -110 -21 -20 -26 -21 -52 -9 -36 16
-44 26 -44 60 0 17 10 35 31 52 36 31 64 33 79 7z m-560 -127 c0 -29 -54 -37
-72 -10 -11 16 -10 23 8 40 14 14 17 14 40 0 13 -9 24 -22 24 -30z m338 0 c16
-28 2 -74 -28 -89 -35 -18 -42 -38 -35 -90 8 -51 -5 -64 -57 -58 -42 6 -51 29
-22 58 28 28 20 62 -26 105 -63 59 -54 74 50 81 47 3 90 6 97 7 7 1 16 -5 21
-14z m-3212 -105 c3 -6 19 -9 35 -7 36 5 72 -25 43 -36 -14 -5 -13 -11 11 -42
l27 -36 -20 -26 c-15 -21 -27 -26 -51 -24 -18 1 -40 -2 -50 -8 -29 -15 -60 26
-66 90 -5 45 -2 57 16 77 24 25 44 29 55 12z m2877 -173 c15 -8 27 -11 27 -5
0 5 16 9 35 9 l35 0 -6 -57 c-10 -85 -33 -104 -76 -63 -26 24 -58 25 -99 4
-39 -20 -59 -12 -59 23 0 52 10 74 30 63 13 -7 20 -4 28 15 13 29 43 32 85 11z
m246 -26 c10 -5 26 -28 36 -52 16 -40 16 -43 -1 -55 -29 -21 -80 -26 -111 -11
-24 12 -28 19 -25 48 1 23 11 43 28 58 27 24 46 27 73 12z m415 -19 c13 -15
15 -26 8 -52 -7 -29 -13 -35 -48 -41 -39 -6 -84 -1 -84 10 0 8 93 102 101 102
3 0 14 -9 23 -19z m-3487 -107 c-3 -3 -12 -4 -19 -1 -8 3 -5 6 6 6 11 1 17 -2
13 -5z m3468 -37 c31 -21 32 -24 19 -47 -17 -32 -17 -40 0 -40 7 0 21 -11 30
-25 16 -24 16 -27 -1 -49 -16 -21 -26 -25 -78 -25 -80 1 -105 22 -105 92 0 38
6 58 26 84 30 40 61 43 109 10z m-175 -7 c0 -11 -4 -20 -9 -20 -5 0 -11 9 -14
20 -3 13 0 20 9 20 8 0 14 -9 14 -20z m-610 -279 c0 -11 -67 -24 -80 -16 -23
14 -7 25 35 25 25 0 45 -4 45 -9z m-32 -103 c3 -25 1 -27 -37 -26 -23 0 -41 2
-41 5 0 2 7 15 16 29 23 34 58 29 62 -8z m-828 -17 c0 -5 14 -12 30 -16 28 -6
43 -25 20 -25 -5 0 -10 -11 -10 -25 0 -26 9 -32 26 -15 13 13 56 1 47 -13 -17
-27 -19 -82 -3 -94 13 -11 13 -14 0 -23 -22 -14 -35 -7 -35 20 0 13 -14 34
-32 49 -17 14 -34 40 -37 58 -4 17 -18 43 -32 58 -30 32 -30 35 1 35 14 0 25
-4 25 -9z m-1590 -101 c0 -11 -4 -20 -10 -20 -5 0 -10 9 -10 20 0 11 5 20 10
20 6 0 10 -9 10 -20z m1930 11 c0 -6 -5 -13 -10 -16 -16 -10 -1 -25 26 -25 21
0 24 -5 24 -35 0 -19 -4 -35 -10 -35 -5 0 -10 7 -10 15 0 27 -19 16 -22 -12
-3 -27 -5 -28 -74 -31 -39 -2 -83 2 -99 8 l-28 11 46 42 c65 60 69 62 95 59
15 -2 22 2 22 12 0 9 8 16 20 16 11 0 20 -4 20 -9z m42 -3 c-9 -9 -15 -9 -24
0 -9 9 -7 12 12 12 19 0 21 -3 12 -12z m-2285 -120 c23 -22 30 -52 14 -62 -5
-3 -14 1 -21 9 -9 11 -17 12 -31 4 -37 -19 -51 10 -23 49 19 28 32 28 61 0z
m1789 -5 c3 -16 7 -33 9 -40 4 -14 -32 -24 -60 -17 -12 3 -26 14 -33 24 -11
17 -8 22 26 39 48 26 51 26 58 -6z m-188 -12 c24 -15 9 -45 -28 -56 -19 -5
-41 -14 -49 -19 -18 -11 -43 20 -39 49 4 28 85 46 116 26z m-1378 -61 c0 -22
4 -40 8 -40 13 0 53 -60 47 -70 -3 -5 -20 -3 -40 7 -28 13 -37 14 -50 3 -8 -7
-15 -21 -15 -32 0 -13 -11 -24 -29 -31 -30 -11 -41 -37 -41 -98 0 -16 -3 -29
-7 -29 -4 0 -33 18 -64 40 -48 33 -62 39 -89 34 -20 -4 -36 -16 -42 -30 -9
-20 -6 -30 17 -65 16 -22 39 -49 52 -58 26 -21 21 -31 -18 -31 -21 0 -32 7
-44 30 -16 31 -44 32 -46 1 0 -10 -4 -7 -10 8 -5 14 -8 63 -7 109 l3 85 95 2
c111 3 128 8 136 44 12 59 35 82 107 105 10 3 17 15 17 31 0 14 5 25 10 25 6
0 10 -18 10 -40z m1703 23 c-7 -2 -13 -10 -13 -16 -1 -16 -42 -62 -62 -69 -17
-7 -28 16 -28 59 0 18 7 22 43 26 68 6 73 6 60 0z m-80 -214 c3 -13 1 -19 -6
-16 -15 5 -22 37 -9 37 5 0 12 -9 15 -21z m-2189 -71 c-18 -15 -29 -17 -36
-10 -20 20 -2 39 31 34 l31 -4 -26 -20z m2474 -12 c-2 -10 -9 -11 -28 -4 l-24
9 24 13 c26 12 34 7 28 -18z m-198 -11 c0 -32 -12 -32 -27 0 -10 22 -9 25 8
25 14 0 19 -7 19 -25z m-670 -83 c0 -14 -9 -26 -25 -34 -19 -8 -22 -15 -15
-28 7 -13 3 -23 -15 -40 l-24 -23 -11 27 c-5 15 -10 40 -10 56 0 16 -4 32 -10
35 -17 10 -11 48 11 71 l22 23 38 -32 c24 -20 39 -41 39 -55z m335 54 c18 -13
18 -14 -4 -49 -33 -54 -60 -60 -96 -21 -29 32 -32 59 -7 73 25 15 85 13 107
-3z m-1325 -16 c0 -5 -6 -10 -14 -10 -8 0 -18 5 -21 10 -3 6 3 10 14 10 12 0
21 -4 21 -10z m-170 -75 c0 -69 -4 -76 -27 -47 -32 40 -35 63 -11 87 13 13 26
23 31 24 4 1 7 -28 7 -64z m2097 9 c-15 -15 -77 -6 -84 12 -3 8 -3 20 0 28 4
11 14 9 51 -8 35 -16 43 -23 33 -32z m-1280 -46 c-3 -8 -6 -5 -6 6 -1 11 2 17
5 13 3 -3 4 -12 1 -19z m-1167 -7 c0 -17 -18 -21 -24 -6 -3 9 0 15 9 15 8 0
15 -4 15 -9z m355 -51 c3 -5 1 -10 -4 -10 -6 0 -11 5 -11 10 0 6 2 10 4 10 3
0 8 -4 11 -10z"/>
<path d="M4212 3058 c-33 -33 -5 -59 53 -48 24 4 30 10 30 30 0 21 -5 25 -35
28 -19 2 -41 -3 -48 -10z"/>
<path d="M1827 5168 c-33 -31 -49 -80 -36 -115 19 -55 107 -80 169 -48 37 19
50 43 50 93 0 34 -5 43 -38 66 -50 34 -110 36 -145 4z"/>
<path d="M3733 5069 c-15 -15 12 -72 54 -110 33 -31 131 -53 151 -34 6 6 -21
101 -33 114 -12 12 -56 25 -130 37 -17 3 -35 0 -42 -7z"/>
<path d="M1563 5010 c-13 -5 -23 -12 -23 -14 0 -9 58 -36 78 -36 11 0 25 -7
32 -16 18 -20 74 -15 78 8 2 12 -7 20 -36 28 -22 5 -45 17 -52 25 -14 17 -43
18 -77 5z"/>
<path d="M3314 4947 c-17 -17 -51 -51 -77 -74 -45 -41 -46 -43 -32 -70 8 -16
17 -44 20 -65 9 -61 68 -64 79 -4 9 46 29 62 61 48 18 -8 25 -20 25 -39 0 -16
4 -34 9 -42 10 -16 58 -18 72 -4 6 6 12 48 14 94 l4 84 -56 53 c-32 28 -64 52
-73 52 -8 0 -29 -15 -46 -33z"/>
<path d="M1869 4905 c-20 -13 -40 -36 -43 -51 -7 -28 1 -123 12 -141 4 -6 57
-14 117 -18 137 -9 150 -2 158 89 5 52 3 61 -18 82 -18 18 -35 24 -68 24 -29
0 -53 7 -70 20 -33 26 -45 25 -88 -5z"/>
<path d="M3951 4616 c-6 -7 -25 -16 -41 -20 -38 -7 -39 -28 -4 -78 19 -26 39
-42 67 -50 37 -11 41 -10 58 11 23 29 25 98 3 129 -17 25 -65 30 -83 8z"/>
<path d="M3390 4485 c0 -28 -40 -36 -176 -37 -123 0 -135 -2 -145 -20 -15 -28
-80 -22 -94 9 -6 14 -18 21 -35 21 -14 -1 -34 2 -45 5 -16 4 -27 -5 -53 -45
-28 -41 -33 -58 -31 -97 1 -25 2 -74 1 -108 -2 -57 -5 -64 -39 -97 l-38 -36
16 -45 17 -46 -24 -9 c-27 -11 -32 -45 -8 -54 21 -8 34 1 34 24 0 10 3 21 8
23 11 7 169 -145 177 -169 4 -15 -2 -31 -20 -52 -29 -34 -34 -101 -10 -125 12
-13 6 -15 -55 -19 -59 -3 -74 -8 -96 -30 -24 -23 -26 -34 -28 -113 -3 -110 15
-145 84 -159 25 -5 47 -10 48 -12 2 -1 -6 -15 -17 -31 -15 -19 -22 -45 -22
-81 -2 -56 12 -82 42 -82 11 0 19 -4 19 -9 0 -36 97 -10 125 33 21 32 35 33
63 4 24 -27 75 -54 115 -62 22 -5 27 -12 25 -29 -2 -18 2 -23 29 -25 28 -3 33
1 39 23 4 15 1 37 -6 50 -10 18 -10 30 0 57 11 29 10 39 -5 69 -9 18 -26 44
-37 56 -13 14 -18 28 -13 42 7 24 -10 29 -19 6 -4 -13 -20 -15 -73 -13 -60 3
-69 6 -79 27 l-12 24 -13 -22 c-8 -11 -17 -21 -20 -21 -8 0 -25 136 -20 170 1
13 -3 44 -10 68 l-12 44 38 32 c35 29 38 36 32 68 -4 28 -1 40 14 54 10 9 19
22 19 27 0 6 7 18 16 28 14 15 12 19 -21 47 -25 20 -53 32 -85 36 -43 6 -54
13 -86 51 -26 32 -38 57 -40 86 -2 22 -11 53 -20 68 -22 38 -13 57 30 65 54
10 133 -4 205 -36 60 -28 70 -29 142 -23 82 7 106 -3 75 -33 -13 -14 -21 -14
-49 -4 -49 18 -71 15 -96 -12 -21 -22 -22 -31 -17 -102 11 -174 27 -213 79
-200 31 7 40 42 20 73 -14 21 -14 26 -2 34 8 5 28 9 44 9 64 0 134 13 139 25
8 22 -5 54 -24 60 -17 5 -33 49 -22 59 2 3 13 1 23 -4 22 -12 30 12 16 54 -9
25 -7 31 16 48 25 18 26 23 22 96 -2 42 1 102 7 134 10 51 9 60 -10 93 -12 20
-22 45 -22 56 0 10 -7 19 -15 19 -8 0 -15 -7 -15 -15z m-149 -115 c42 -43 44
-47 29 -70 -8 -12 -13 -12 -44 2 -27 13 -36 25 -41 52 -7 32 -1 56 12 56 3 0
23 -18 44 -40z m-286 -1260 c8 -13 -20 -24 -41 -16 -20 8 -9 26 16 26 10 0 22
-5 25 -10z"/>
<path d="M6529 4302 c-96 -77 -154 -140 -214 -231 -44 -67 -57 -99 -86 -211
-5 -19 -9 -90 -9 -156 0 -122 10 -172 54 -277 24 -55 77 -135 135 -200 59 -68
64 -99 26 -162 -14 -22 -28 -47 -32 -55 -18 -39 -148 -204 -217 -275 -116
-120 -104 -136 84 -111 220 29 371 86 538 200 97 67 126 74 195 52 228 -71
501 -106 680 -86 229 26 471 89 633 166 78 37 304 190 341 231 27 30 31 39 21
51 -10 12 -30 13 -103 8 -84 -6 -244 2 -460 23 -191 19 -531 119 -717 211
-111 55 -318 204 -413 296 -136 133 -253 324 -308 504 -31 101 -47 103 -148
22z"/>
<path d="M4683 3949 c-20 -7 -23 -16 -23 -57 0 -27 2 -51 4 -53 3 -2 33 -2 68
1 62 5 63 6 66 35 4 56 -58 96 -115 74z"/>
<path d="M4520 3892 c-35 -53 -37 -70 -11 -121 27 -52 45 -65 70 -51 42 22 68
93 57 154 -5 27 -14 36 -46 49 l-39 15 -31 -46z"/>
<path d="M2771 3861 c-6 -10 -22 -22 -36 -25 -26 -7 -29 -16 -19 -78 5 -28 12
-38 28 -40 11 -2 26 -15 33 -29 7 -15 24 -30 38 -33 14 -4 25 -14 26 -24 1 -9
6 -2 11 15 6 18 19 35 29 38 25 8 24 30 -2 49 -16 11 -20 21 -15 39 4 16 -1
32 -14 47 -11 12 -22 31 -25 41 -8 24 -41 24 -54 0z"/>
<path d="M4670 3789 c0 -42 51 -77 64 -44 3 9 -5 21 -22 32 -15 10 -30 22 -34
28 -4 5 -8 -2 -8 -16z"/>
<path d="M4790 3736 c0 -3 4 -16 10 -30 10 -27 25 -32 48 -17 20 13 -7 51 -35
51 -13 0 -23 -2 -23 -4z"/>
<path d="M3708 3679 c-13 -7 -18 -23 -18 -53 0 -36 5 -46 31 -65 31 -23 31
-23 66 -5 19 11 37 22 40 27 9 15 -38 97 -57 97 -10 0 -24 2 -32 5 -7 2 -21 0
-30 -6z"/>
<path d="M3190 3350 c0 -5 7 -10 16 -10 8 0 12 5 9 10 -3 6 -10 10 -16 10 -5
0 -9 -4 -9 -10z"/>
<path d="M4401 3344 c0 -11 3 -14 6 -6 3 7 2 16 -1 19 -3 4 -6 -2 -5 -13z"/>
<path d="M4659 3061 c-23 -24 -29 -38 -29 -74 0 -38 5 -49 31 -71 46 -39 101
-32 141 18 30 36 21 83 -25 134 -30 33 -81 30 -118 -7z"/>
<path d="M2978 3015 c-27 -24 -48 -53 -48 -63 0 -38 94 -112 143 -112 27 0 27
0 27 -70 0 -58 3 -71 19 -80 28 -15 48 -12 79 9 20 14 52 21 118 25 77 5 98 2
145 -16 51 -20 109 -25 131 -12 7 4 8 33 3 78 -5 61 -11 76 -38 104 -33 34
-55 40 -75 20 -8 -8 -62 -12 -170 -12 -133 -1 -162 -4 -185 -18 -14 -10 -29
-18 -32 -18 -3 0 -4 30 -3 68 2 76 -21 142 -50 142 -9 0 -38 -20 -64 -45z"/>
<path d="M2758 2798 c-25 -21 -28 -43 -8 -75 10 -17 16 -41 13 -55 -3 -14 2
-38 10 -54 8 -16 12 -43 10 -60 -3 -18 0 -35 6 -38 6 -4 11 -26 11 -48 0 -23
7 -49 14 -57 22 -24 6 -40 -46 -45 -44 -5 -46 -4 -52 25 -6 31 -26 31 -26 0 0
-9 -13 -30 -28 -45 -26 -24 -30 -25 -42 -11 -7 8 -20 15 -29 15 -9 0 -12 -3
-6 -8 10 -7 30 -36 41 -59 11 -23 -5 -43 -33 -43 -43 0 -71 -10 -78 -28 -12
-30 -5 -345 8 -360 22 -27 55 -32 101 -17 44 15 73 14 209 -11 34 -6 42 -3 73
27 l34 33 0 172 c0 128 -3 175 -12 181 -7 4 -59 6 -115 4 -128 -3 -146 1 -131
34 14 31 37 39 57 22 18 -16 111 -31 180 -29 50 1 81 24 81 58 0 24 -1 24 -77
40 -25 5 -29 24 -12 53 9 13 9 36 0 92 -7 41 -16 101 -21 134 -10 74 -21 105
-53 139 -26 28 -54 33 -79 14z m-10 -720 c-9 -26 -35 -32 -63 -14 -14 9 -27
23 -29 29 -2 7 -8 26 -13 44 -9 27 -8 33 6 36 19 5 105 -77 99 -95z"/>
<path d="M4266 2709 c-140 -9 -160 -17 -171 -69 -5 -22 0 -34 20 -54 19 -19
24 -32 19 -44 -4 -9 -8 -33 -8 -52 l-1 -35 105 -5 c58 -3 139 -3 180 0 73 5
75 6 72 30 -1 14 -3 64 -3 112 -1 82 -2 89 -26 108 -14 11 -33 19 -42 19 -9
-1 -74 -6 -145 -10z m101 -60 c16 -16 -2 -52 -37 -72 -39 -24 -50 -21 -50 11
1 19 10 33 33 49 39 26 40 26 54 12z"/>
<path d="M3358 2563 c-55 -60 -56 -94 -3 -143 40 -38 98 -34 136 8 40 44 38
81 -5 126 -43 46 -90 49 -128 9z"/>
<path d="M2459 2527 c-35 -31 -37 -36 -43 -113 -6 -79 -6 -81 19 -92 31 -14
52 -4 84 44 21 30 22 37 11 81 -7 26 -13 61 -14 77 -4 40 -15 41 -57 3z"/>
<path d="M2720 2466 c0 -24 2 -26 21 -16 11 7 19 13 17 14 -1 1 -11 8 -20 15
-16 12 -18 11 -18 -13z"/>
<path d="M2329 2354 c-16 -19 -3 -64 19 -64 24 0 38 11 46 35 5 16 0 23 -24
32 -23 9 -32 8 -41 -3z"/>
<path d="M2310 2254 c-15 -13 -35 -22 -43 -18 -8 3 -18 1 -21 -4 -3 -5 18 -12
47 -15 42 -4 55 -2 67 13 8 10 23 20 33 22 12 2 6 7 -18 14 -33 10 -39 9 -65
-12z"/>
<path d="M1697 2145 c-49 -25 -66 -55 -67 -112 0 -48 -3 -54 -39 -83 -46 -38
-65 -71 -56 -99 11 -35 41 -24 92 34 45 52 51 55 95 55 42 0 51 4 88 42 50 53
54 96 13 135 -48 44 -82 51 -126 28z m103 -123 c0 -26 -33 -54 -54 -46 -15 6
-13 10 11 35 33 33 43 36 43 11z"/>
<path d="M2692 1771 c-32 -29 -32 -31 -34 -128 -3 -138 -1 -155 14 -164 7 -5
57 -9 110 -9 87 0 98 2 108 20 12 22 9 278 -4 298 -4 8 -35 12 -84 12 -72 0
-80 -2 -110 -29z"/>
<path d="M1560 1752 c-65 -34 -81 -47 -109 -92 -31 -50 -45 -108 -32 -128 6
-11 13 -11 35 -1 21 10 32 10 46 2 15 -10 23 -6 50 29 18 22 47 46 65 54 30
12 51 45 37 58 -3 3 -20 6 -38 6 -46 0 -51 16 -10 30 37 12 54 38 34 52 -20
12 -41 10 -78 -10z m-60 -166 c0 -14 -4 -28 -10 -31 -6 -4 -10 7 -10 24 0 17
5 31 10 31 6 0 10 -11 10 -24z"/>
<path d="M1045 1139 c-49 -49 -95 -89 -101 -89 -27 0 -33 -73 -8 -108 11 -16
25 -22 53 -22 41 0 51 11 51 54 0 12 15 37 33 54 l33 32 21 -22 c12 -13 31
-45 42 -71 25 -58 50 -60 67 -7 16 48 52 54 60 11 7 -35 28 -56 47 -48 8 3 22
32 33 66 l20 60 -25 33 c-38 48 -84 87 -102 88 -9 0 -22 -7 -29 -15 -19 -23
-30 -18 -30 14 0 35 -23 62 -53 60 -13 -1 -59 -38 -112 -90z"/>
<path d="M2703 954 c-7 -18 11 -39 26 -30 17 11 13 46 -4 46 -9 0 -18 -7 -22
-16z"/>
</g>
</svg>
