<?xml version="1.0" standalone="no"?>
<!DOCTYPE svg PUBLIC "-//W3C//DTD SVG 20010904//EN"
 "http://www.w3.org/TR/2001/REC-SVG-20010904/DTD/svg10.dtd">
<svg version="1.0" xmlns="http://www.w3.org/2000/svg"
 width="1008.000000pt" height="726.000000pt" viewBox="0 0 1008.000000 726.000000"
 preserveAspectRatio="xMidYMid meet">

<g transform="translate(0.000000,726.000000) scale(0.100000,-0.100000)"
fill="#000000" stroke="none">
<path d="M2730 6396 c-58 -35 -287 -168 -510 -296 -681 -392 -851 -491 -950
-548 -52 -31 -124 -72 -160 -92 -36 -20 -121 -69 -190 -109 -177 -103 -501
-291 -553 -321 -81 -46 -81 -46 -49 -104 76 -135 108 -186 119 -186 13 0 183
96 898 510 88 51 248 143 355 205 107 62 240 138 295 170 55 32 174 101 265
153 91 52 190 110 220 127 242 140 329 188 357 192 33 6 84 -22 601 -320 346
-200 395 -228 407 -225 26 6 274 153 275 163 0 6 -12 17 -28 26 -15 8 -117 67
-227 131 -110 63 -290 167 -400 231 -110 63 -272 157 -360 208 -88 51 -182
105 -210 120 l-50 27 -105 -62z"/>
<path d="M7140 6404 c-52 -31 -120 -71 -150 -89 -30 -18 -75 -44 -100 -57 -48
-27 -102 -59 -265 -153 -55 -32 -156 -90 -225 -130 -69 -40 -170 -98 -225
-130 -55 -32 -124 -72 -153 -88 -29 -16 -51 -34 -49 -40 2 -6 65 -47 140 -90
l137 -78 147 84 c143 81 427 245 678 389 66 39 136 72 157 75 42 6 5 26 588
-312 74 -43 191 -110 260 -150 264 -152 473 -272 685 -395 262 -152 477 -276
519 -300 193 -110 304 -175 321 -186 39 -28 51 -17 119 102 36 63 66 119 66
124 0 5 -19 19 -42 33 -24 13 -101 58 -173 99 -71 42 -215 125 -320 185 -212
122 -469 270 -620 358 -55 32 -174 101 -265 153 -225 129 -402 231 -545 314
-66 39 -149 87 -185 108 -36 20 -140 81 -232 134 -91 53 -168 96 -170 96 -2
-1 -46 -26 -98 -56z"/>
<path d="M4920 5903 c-63 -36 -167 -96 -230 -133 -63 -38 -203 -119 -310 -180
-107 -62 -251 -145 -320 -185 -69 -40 -226 -130 -350 -202 -604 -348 -754
-435 -895 -518 -38 -23 -123 -72 -188 -109 -64 -38 -119 -72 -122 -77 -8 -13
82 -181 123 -231 17 -20 25 -17 147 57 39 23 178 104 310 180 420 241 557 321
660 380 55 32 172 99 260 150 88 50 221 127 295 170 74 43 191 111 260 150
174 100 304 176 375 219 81 49 129 49 209 1 32 -19 60 -35 61 -35 1 0 81 -45
176 -101 211 -123 461 -267 629 -364 69 -40 256 -147 415 -240 160 -92 353
-203 430 -248 228 -131 276 -159 350 -203 39 -23 109 -62 157 -88 l87 -47 24
38 c32 51 117 201 117 207 0 4 -47 32 -310 186 -36 21 -168 98 -295 170 -231
133 -443 256 -545 315 -30 18 -113 66 -185 107 -71 41 -188 109 -260 150 -71
41 -222 128 -335 193 -217 125 -282 163 -382 221 -120 70 -233 134 -238 134
-3 0 -57 -30 -120 -67z"/>
<path d="M2724 5777 c-60 -35 -199 -115 -309 -179 -110 -63 -308 -177 -440
-253 -132 -76 -368 -212 -525 -303 -157 -90 -359 -207 -450 -259 -91 -53 -182
-106 -203 -119 l-37 -24 0 -1475 0 -1475 980 0 980 0 0 1155 c0 1265 4 1178
-57 1138 -15 -10 -45 -17 -74 -17 -62 0 -82 18 -150 138 -29 50 -92 159 -141
242 -91 156 -101 188 -78 248 10 28 32 43 217 149 70 41 247 142 393 226 146
84 372 214 503 289 161 92 237 141 235 151 -2 8 -84 62 -183 119 -99 57 -238
138 -310 180 -168 97 -229 132 -236 132 -3 0 -54 -28 -115 -63z"/>
<path d="M7009 5711 c-388 -222 -494 -287 -494 -301 0 -16 -22 -3 485 -295
283 -163 748 -430 789 -453 96 -55 104 -118 30 -247 -152 -269 -244 -418 -266
-432 -33 -22 -91 -20 -140 5 -36 19 -42 19 -47 6 -3 -9 -6 -531 -6 -1160 l0
-1144 983 2 982 3 2 1450 c0 798 -1 1461 -3 1475 -3 14 -17 32 -32 41 -26 15
-105 61 -319 186 -173 100 -356 205 -423 243 -36 20 -121 69 -190 110 -69 40
-172 99 -230 132 -58 33 -121 70 -140 82 -19 13 -87 52 -150 88 -63 36 -171
98 -240 138 -228 133 -348 200 -357 200 -5 0 -110 -58 -234 -129z"/>
<path d="M4875 5261 c-143 -81 -406 -233 -564 -325 -62 -36 -115 -66 -116 -66
-1 0 -80 -46 -176 -102 -203 -118 -211 -123 -519 -300 -129 -75 -304 -175
-387 -224 l-153 -88 0 -1478 0 -1478 333 2 332 3 5 710 c6 775 1 719 65 845
63 124 181 243 300 300 89 44 209 64 330 57 171 -10 283 -58 405 -174 83 -78
140 -165 177 -270 l28 -78 5 -695 5 -695 1088 -3 1087 -2 0 1478 0 1477 -82
49 c-46 27 -173 100 -283 164 -262 151 -415 239 -670 387 -115 67 -291 168
-390 225 -162 93 -375 217 -510 296 -130 76 -154 75 -310 -15z m280 -363 c162
-35 299 -165 355 -337 19 -61 22 -86 18 -167 -5 -83 -10 -104 -41 -167 -44
-88 -128 -183 -193 -219 -127 -68 -267 -85 -390 -47 -118 36 -185 82 -250 170
-66 90 -96 166 -102 253 -9 150 38 275 146 384 128 128 274 170 457 130z
m1365 -1793 c61 -32 61 -28 58 -546 l-3 -471 -33 -29 -32 -29 -476 0 -476 0
-34 34 -34 34 0 475 c0 469 0 475 21 501 12 15 31 32 43 36 11 5 227 9 479 9
391 1 462 -1 487 -14z"/>
<path d="M4943 4653 c-52 -18 -115 -86 -131 -141 -30 -98 0 -218 66 -274 101
-85 263 -73 350 26 79 90 66 263 -24 348 -59 55 -172 73 -261 41z"/>
<path d="M5722 2573 l3 -308 95 0 95 0 0 305 0 305 -98 3 -97 3 2 -308z"/>
<path d="M6155 2867 c-3 -7 -4 -145 -3 -307 l3 -295 75 -3 c41 -2 85 0 97 3
l23 5 0 305 0 305 -95 0 c-68 0 -97 -4 -100 -13z"/>
<path d="M4165 2863 c-156 -56 -259 -169 -294 -323 -7 -28 -11 -285 -11 -692
l0 -648 419 0 c368 0 420 2 425 15 3 9 6 300 6 647 0 688 -1 696 -58 801 -35
65 -123 144 -202 181 -83 39 -206 47 -285 19z m420 -655 c37 -29 57 -78 46
-115 -14 -49 -30 -72 -61 -88 -109 -56 -215 66 -150 173 34 55 114 70 165 30z"/>
</g>
</svg>
