<?xml version="1.0" encoding="UTF-8"?>
<!DOCTYPE svg PUBLIC "-//W3C//DTD SVG 1.1//EN" "http://www.w3.org/Graphics/SVG/1.1/DTD/svg11.dtd">
<svg xmlns="http://www.w3.org/2000/svg" version="1.1" width="840px" height="430px" style="shape-rendering:geometricPrecision; text-rendering:geometricPrecision; image-rendering:optimizeQuality; fill-rule:evenodd; clip-rule:evenodd" xmlns:xlink="http://www.w3.org/1999/xlink">
<g><path style="opacity:1" fill="#3f9577" d="M 405.5,45.5 C 505.443,45.5468 605.276,45.5468 705,45.5C 726.813,46.3067 748.647,46.8067 770.5,47C 784.184,52.0171 794.018,61.1838 800,74.5C 800.667,165.5 800.667,256.5 800,347.5C 794.018,360.816 784.184,369.983 770.5,375C 634.567,376.997 498.567,376.997 362.5,375C 347.85,370.351 337.683,360.851 332,346.5C 331.333,256.167 331.333,165.833 332,75.5C 337.789,60.7078 348.289,51.2078 363.5,47C 377.673,46.8311 391.673,46.3311 405.5,45.5 Z M 444.5,72.5 C 528.865,72.5731 613.199,72.5731 697.5,72.5C 717.494,73.1999 737.494,73.6999 757.5,74C 693.667,123.167 629.833,172.333 566,221.5C 502.167,172.333 438.333,123.167 374.5,74C 398.004,73.8321 421.337,73.3321 444.5,72.5 Z M 773.5,96.5 C 774.647,177.821 774.814,259.154 774,340.5C 771.167,343.333 768.333,346.167 765.5,349C 632.5,349.5 499.5,349.667 366.5,349.5C 363.871,346.369 361.038,343.369 358,340.5C 357.083,259.158 357.416,177.825 359,96.5C 427.74,149.742 496.907,202.409 566.5,254.5C 635.519,201.809 704.519,149.143 773.5,96.5 Z"/></g>
<g><path style="opacity:1" fill="#3f9677" d="M 301.5,84.5 C 301.5,92.8333 301.5,101.167 301.5,109.5C 205.833,109.5 110.167,109.5 14.5,109.5C 14.5,100.833 14.5,92.1667 14.5,83.5C 110.335,83.1673 206.001,83.5006 301.5,84.5 Z"/></g>
<g><path style="opacity:0.914" fill="#418d72" d="M 301.5,84.5 C 302.493,92.9839 302.826,101.651 302.5,110.5C 206.332,110.833 110.332,110.499 14.5,109.5C 110.167,109.5 205.833,109.5 301.5,109.5C 301.5,101.167 301.5,92.8333 301.5,84.5 Z"/></g>
<g><path style="opacity:1" fill="#409677" d="M 301.5,159.5 C 301.5,167.833 301.5,176.167 301.5,184.5C 232.167,184.5 162.833,184.5 93.5,184.5C 93.5,176.167 93.5,167.833 93.5,159.5C 162.833,158.167 232.167,158.167 301.5,159.5 Z"/></g>
<g><path style="opacity:1" fill="#68a08a" d="M 93.5,159.5 C 93.5,167.833 93.5,176.167 93.5,184.5C 162.833,184.5 232.167,184.5 301.5,184.5C 301.5,176.167 301.5,167.833 301.5,159.5C 302.493,167.984 302.826,176.651 302.5,185.5C 232.507,186.567 162.507,186.567 92.5,185.5C 92.1736,176.651 92.507,167.984 93.5,159.5 Z"/></g>
<g><path style="opacity:1" fill="#3f9677" d="M 170.5,234.5 C 214.5,234.5 258.5,234.5 302.5,234.5C 302.817,243.418 302.484,252.251 301.5,261C 258.167,261.667 214.833,261.667 171.5,261C 170.516,252.251 170.183,243.418 170.5,234.5 Z"/></g>
<g><path style="opacity:1" fill="#409577" d="M 249.5,309.5 C 267.167,309.5 284.833,309.5 302.5,309.5C 302.817,318.418 302.484,327.251 301.5,336C 284.17,336.5 266.837,336.667 249.5,336.5C 249.5,327.5 249.5,318.5 249.5,309.5 Z"/></g>
<g><path style="opacity:0.788" fill="#4d917a" d="M 773.5,96.5 C 774.833,136.995 775.5,177.828 775.5,219C 775.333,259.833 775.167,300.667 775,341.5C 772.167,344.333 769.333,347.167 766.5,350C 632.999,350.833 499.666,350.666 366.5,349.5C 499.5,349.667 632.5,349.5 765.5,349C 768.333,346.167 771.167,343.333 774,340.5C 774.814,259.154 774.647,177.821 773.5,96.5 Z"/></g>
</svg>
