<?xml version="1.0" standalone="no"?>
<!DOCTYPE svg PUBLIC "-//W3C//DTD SVG 20010904//EN"
 "http://www.w3.org/TR/2001/REC-SVG-20010904/DTD/svg10.dtd">
<svg version="1.0" xmlns="http://www.w3.org/2000/svg"
 width="840.000000pt" height="430.000000pt" viewBox="0 0 840.000000 430.000000"
 preserveAspectRatio="xMidYMid meet">

<g transform="translate(0.000000,430.000000) scale(0.100000,-0.100000)"
fill="#000000" stroke="none">
<path d="M3800 3821 c-172 -6 -189 -8 -240 -32 -78 -38 -132 -88 -184 -175
l-46 -75 1 -1357 0 -1357 47 -74 c55 -87 126 -149 209 -182 l58 -24 2015 0
c1946 0 2017 1 2070 19 62 21 140 73 179 119 14 16 43 59 64 94 l37 64 0 1344
0 1344 -36 63 c-62 107 -141 177 -239 213 -48 17 -138 18 -1900 20 -1017 1
-1933 -1 -2035 -4z m3442 -248 c296 -5 356 -8 347 -20 -6 -7 -165 -131 -353
-275 -187 -144 -617 -475 -954 -735 l-613 -473 -37 28 c-21 15 -121 91 -222
169 -102 79 -320 247 -485 374 -165 127 -331 255 -370 285 -38 30 -236 182
-440 339 -203 157 -371 290 -373 295 -2 6 126 11 350 12 740 6 2809 6 3150 1z
m-3534 -315 c242 -185 325 -249 499 -383 99 -77 252 -194 338 -260 86 -66 218
-167 293 -226 442 -341 815 -619 831 -619 22 0 144 91 729 543 933 721 1333
1027 1343 1027 16 0 19 -186 19 -1280 l0 -1174 -47 -48 -47 -48 -1995 0 -1995
0 -48 47 -48 47 0 1228 c0 828 3 1228 10 1228 6 0 59 -37 118 -82z"/>
<path d="M150 3325 l0 -125 1435 0 1435 0 0 125 0 125 -1435 0 -1435 0 0 -125z"/>
<path d="M940 2570 l0 -130 1040 0 1040 0 0 130 0 130 -1040 0 -1040 0 0 -130z"/>
<path d="M1720 1820 l0 -130 650 0 650 0 0 130 0 130 -650 0 -650 0 0 -130z"/>
<path d="M2500 1065 l0 -125 260 0 260 0 0 125 0 125 -260 0 -260 0 0 -125z"/>
</g>
</svg>
